<svg width="500" height="500" viewBox="0 0 500 500" fill="none" xmlns="http://www.w3.org/2000/svg">
<path d="M233.582 18.0152C236.093 23.1236 237.103 27.3442 237.019 33.0777C237.012 33.8143 237.004 34.5509 236.996 35.3099C236.678 46.0896 234.114 56.0415 226.582 64.0152C226.088 64.5579 225.594 65.1006 225.086 65.6597C221.722 68.6914 217.849 68.0957 213.582 68.0152C213.699 66.6811 213.826 65.348 213.957 64.0152C214.026 63.2727 214.096 62.5302 214.168 61.7652C214.719 58.103 215.648 54.599 216.582 51.0152C216.32 51.5197 216.057 52.0242 215.787 52.544C214.598 54.8281 213.402 57.1091 212.207 59.3902C211.794 60.1842 211.382 60.9783 210.957 61.7964C210.557 62.557 210.158 63.3175 209.746 64.1011C209.379 64.8028 209.013 65.5046 208.635 66.2276C207.582 68.0152 207.582 68.0152 205.582 70.0152C204.592 70.0152 203.602 70.0152 202.582 70.0152C199.97 58.2824 201.944 47.631 208 37.312C213.819 28.8636 222.626 17.5282 233.582 18.0152ZM217.582 48.0152C218.582 50.0152 218.582 50.0152 218.582 50.0152L217.582 48.0152Z" fill="#33BB88"/>
<path d="M286.582 25.0151C287.582 26.0151 287.582 26.0151 287.957 29.3276C287.798 39.21 281.994 47.9274 275.582 55.0151C274.743 55.9471 273.904 56.8791 273.039 57.8394C266.637 64.7061 260.473 69.248 251.457 71.9526C247.533 72.0379 244.346 71.1185 240.582 70.0151C243.636 63.9069 247.61 59.6615 252.582 55.0151C251.159 56.2526 251.159 56.2526 249.707 57.5151C245.097 61.4715 240.342 65.2419 235.582 69.0151C233.676 63.5763 236.246 58.9782 238.582 54.0151C246.792 39.9664 259.908 30.7897 275.23 25.8354C279.277 24.845 282.44 24.8009 286.582 25.0151Z" fill="#33BB88"/>
<path d="M422.582 28.0151C424.507 28.3665 424.507 28.3665 426.582 29.0151C437.451 50.646 434.64 84.3215 427.682 106.745C419.69 130.385 402.985 144.544 381.582 156.015C391.632 154.205 400.542 150.19 409.824 146.074C413.358 144.513 416.882 143.145 420.582 142.015C420.912 142.345 421.242 142.675 421.582 143.015C420.731 165.141 403.573 187.968 388.223 202.714C371.3 217.459 351.096 224.783 329.582 230.015C333.14 231.794 337.243 230.953 341.145 230.765C342.549 230.701 342.549 230.701 343.982 230.635C350.86 230.256 357.513 229.372 364.25 227.944C367.658 227.24 370.273 226.752 373.582 228.015C352.157 256.682 325.195 269.363 290.183 274.658C287.633 275.008 285.084 275.294 282.523 275.558C278.803 275.762 278.803 275.762 276.582 277.015C289.902 278.709 303.165 279.55 316.582 280.015C316.582 280.675 316.582 281.335 316.582 282.015C315.922 282.015 315.262 282.015 314.582 282.015C314.322 282.599 314.061 283.183 313.793 283.785C304.223 301.413 278.73 311.261 260.582 317.015C254.296 318.865 247.944 320.454 241.582 322.015C239.257 322.588 236.932 323.16 234.607 323.735C233.204 324.081 231.799 324.423 230.393 324.76C227.218 325.347 227.218 325.347 224.582 327.015C234.812 327.015 245.042 327.015 255.582 327.015C233.586 349.011 200.539 358.947 170.582 364.015C169.592 364.015 168.602 364.015 167.582 364.015C168.915 359.259 170.977 355.628 173.895 351.703C174.33 351.107 174.766 350.51 175.215 349.896C176.661 347.929 178.121 345.972 179.582 344.015C180.348 342.978 180.348 342.978 181.129 341.919C187.993 332.638 195.164 323.909 203.141 315.567C204.676 313.914 206.132 312.209 207.594 310.492C212.526 304.821 217.885 299.563 223.206 294.26C225.016 292.457 226.82 290.647 228.623 288.837C233.93 283.528 239.219 278.255 244.967 273.416C246.76 271.86 248.42 270.21 250.082 268.515C252.473 266.081 254.932 263.802 257.52 261.578C260.966 258.609 264.173 255.474 267.332 252.203C269.197 250.389 271.093 248.713 273.07 247.027C278.933 241.935 284.317 236.349 289.77 230.828C291.885 228.685 294.004 226.547 296.125 224.41C296.836 223.686 296.836 223.686 297.562 222.948C300.415 220.073 303.396 217.512 306.582 215.015C307.658 213.859 308.702 212.671 309.707 211.453C312.632 208.019 315.732 204.856 318.957 201.703C323.455 197.285 327.483 192.617 331.41 187.687C333.511 185.103 335.701 182.651 337.957 180.203C350.975 165.858 362.496 149.776 373.27 133.703C373.667 133.111 374.065 132.519 374.475 131.91C376.794 128.396 378.771 124.815 380.582 121.015C380.06 121.658 379.538 122.302 379 122.964C370.111 133.877 361.06 144.607 351.582 155.015C350.039 156.722 348.497 158.431 346.957 160.14C346.284 160.885 345.611 161.63 344.918 162.398C343.656 163.812 342.398 165.23 341.167 166.671C336.288 172.358 331.077 177.665 325.773 182.957C324.848 183.883 323.922 184.81 322.969 185.764C321.021 187.713 319.072 189.66 317.122 191.606C314.643 194.079 312.169 196.556 309.696 199.035C307.308 201.428 304.915 203.817 302.523 206.207C301.646 207.086 300.769 207.965 299.865 208.871C295.456 213.264 290.984 217.512 286.264 221.569C284.32 223.24 282.443 224.971 280.582 226.734C279.922 227.357 279.262 227.979 278.582 228.621C277.922 229.246 277.262 229.871 276.582 230.515C271.945 234.908 267.255 239.211 262.431 243.398C259.893 245.617 257.426 247.908 254.957 250.203C250.67 254.166 246.291 257.996 241.832 261.765C235.792 266.879 229.998 272.224 224.263 277.676C220.417 281.328 216.498 284.867 212.493 288.343C209.68 290.805 206.942 293.343 204.207 295.89C200.335 299.48 196.45 303.052 192.52 306.578C183.321 314.832 174.254 323.219 165.277 331.713C162.133 334.675 158.966 337.607 155.727 340.464C155.169 340.956 154.612 341.448 154.038 341.955C152.582 343.015 152.582 343.015 150.582 343.015C150.815 324.469 153.513 305.503 162.582 289.015C163.242 288.685 163.902 288.355 164.582 288.015C164.998 289.929 164.998 289.929 165.422 291.882C165.788 293.552 166.154 295.221 166.52 296.89C166.702 297.732 166.884 298.574 167.072 299.441C167.25 300.247 167.427 301.052 167.609 301.882C167.772 302.626 167.934 303.37 168.101 304.136C168.53 306.087 168.53 306.087 169.582 308.015C169.68 306.757 169.778 305.499 169.879 304.203C172.341 274.994 182.839 252.401 202.282 230.487C203.521 229.084 204.738 227.661 205.953 226.238C211.201 220.142 211.201 220.142 214.582 219.015C214.51 219.638 214.438 220.26 214.363 220.902C213.66 227.908 213.472 234.851 213.457 241.89C213.453 242.793 213.448 243.697 213.443 244.627C213.454 249.204 213.646 253.513 214.582 258.015C214.713 257.351 214.843 256.687 214.978 256.002C222.745 216.786 238.107 190.598 271.582 168.015C272.978 170.806 272.24 172.398 271.645 175.453C270.165 184.29 270.412 193.081 270.582 202.015C271.242 202.015 271.902 202.015 272.582 202.015C272.596 201.251 272.61 200.486 272.625 199.699C273.45 181.162 281.278 163.359 294.82 150.56C300.973 145.167 307.833 140.619 314.582 136.015C315.744 135.216 316.905 134.417 318.066 133.617C320.144 132.185 322.222 130.754 324.301 129.324C334.752 122.036 344.831 114.211 354.582 106.015C355.621 105.163 356.66 104.312 357.699 103.46C371.912 91.6861 385.288 78.6292 396.582 64.0151C398.019 62.3273 399.457 60.6399 400.895 58.9526C406.015 52.7161 410.376 45.9991 414.785 39.2495C417.285 35.4284 419.902 31.712 422.582 28.0151Z" fill="#3355BB"/>
<path d="M185.582 36.0151C190.052 37.381 192.069 39.0784 194.582 43.0151C198.657 51.8268 198.64 60.1326 195.433 69.2026C194.582 71.0151 194.582 71.0151 192.582 73.0151C191.262 73.0151 189.942 73.0151 188.582 73.0151C187.922 71.6951 187.262 70.3751 186.582 69.0151C186.334 69.9639 186.087 70.9126 185.832 71.8901C184.582 75.0151 184.582 75.0151 182.504 76.2104C181.552 76.6088 181.552 76.6088 180.582 77.0151C175.372 68.0603 174.988 57.8751 177.312 47.8706C179.153 42.8596 181.49 39.4248 185.582 36.0151Z" fill="#33BB88"/>
<path d="M309.707 52.6401C311.066 52.5841 311.066 52.5841 312.453 52.5268C314.931 52.4938 317.156 52.5058 319.582 53.0151C321.699 55.5386 321.699 55.5386 322.582 58.0151C314.843 72.1037 304.083 81.0949 288.582 86.0151C282.372 87.464 275.757 88.5818 269.867 85.6753C267.682 84.2079 265.607 82.6953 263.582 81.0151C266.649 77.591 269.699 75.7417 273.832 73.7651C274.91 73.2443 275.987 72.7236 277.098 72.187C277.918 71.8003 278.737 71.4136 279.582 71.0151C277.811 71.4932 276.04 71.9727 274.27 72.4526C273.283 72.7195 272.297 72.9863 271.281 73.2612C269.367 73.7959 267.468 74.3866 265.582 75.0151C269.952 65.1819 278.697 59.9442 288.395 56.1401C295.635 53.4769 302.044 52.7611 309.707 52.6401Z" fill="#33BB88"/>
<path d="M262.797 90.3746C273.741 99.8024 280.414 111.604 282.457 125.953C282.982 133.684 282.409 142.707 277.582 149.015C274.789 151.015 274.789 151.015 271.394 153.015C258.977 160.6 247.967 170.371 237.238 180.152C236.403 180.911 235.568 181.67 234.707 182.453C233.967 183.132 233.227 183.811 232.465 184.511C229.991 186.66 227.471 188.672 224.89 190.687C219.402 195.056 214.449 199.844 209.519 204.828C208.641 205.711 207.763 206.595 206.858 207.505C201.025 213.424 195.666 219.444 190.582 226.015C188.827 228.132 187.047 230.229 185.269 232.328C182.835 235.201 180.588 238.006 178.515 241.152C176.801 243.69 175.211 245.481 172.957 247.515C153.368 266.74 142.176 294.918 140.582 322.015C140.582 324.079 140.609 326.143 140.66 328.207C140.686 329.254 140.712 330.301 140.738 331.38C140.801 333.516 140.879 335.652 140.973 337.787C141.192 348.898 137.026 356.052 129.582 364.015C121.691 360.811 117.43 350.569 113.933 343.285C109.902 333.533 107.926 323.528 107.582 313.015C107.53 312.11 107.479 311.205 107.426 310.273C106.676 287.731 113.903 263.971 128.832 246.828C130.392 245.201 131.977 243.597 133.582 242.015C134.43 241.168 135.278 240.321 136.152 239.449C153.749 222.612 174.615 210.332 196.015 198.989C214.545 189.152 231.273 178.117 239.457 157.828C241.721 150.208 242.267 140.543 238.769 133.265C236.465 129.841 236.465 129.841 233.582 127.015C229.972 126.285 229.972 126.285 226.582 126.015C226.303 127.222 226.303 127.222 226.019 128.453C220.712 141.607 209.159 148.571 196.779 154.103C182.698 159.949 166.744 163.228 151.582 164.015C150.803 164.068 150.025 164.121 149.223 164.175C141.86 164.467 135.519 162.855 129.707 158.203C124.863 153.651 122.807 148.659 122.582 142.015C123.122 137.48 124.265 134.21 127.695 131.097C131.013 128.76 134.426 126.669 137.957 124.671C143.916 121.113 146.893 116.969 150.551 111.113C153.73 106.265 157.532 102.145 161.582 98.0152C162.183 97.39 162.783 96.7648 163.402 96.1206C188.949 71.624 234.858 69.8705 262.797 90.3746ZM178.582 113.015C175.744 117.083 175.034 120.322 175.879 125.117C177.177 128.621 179.5 130.096 182.582 132.015C186.538 133.362 188.261 133.119 192.269 131.828C196.234 129.661 196.234 129.661 198.582 126.015C199.783 121.773 199.94 119.069 197.894 115.203C195.397 111.545 195.397 111.545 191.582 110.015C186.314 109.597 182.763 109.431 178.582 113.015Z" fill="#33BB88"/>
<path d="M326.582 89.0151C329.707 91.3276 329.707 91.3276 331.582 94.0151C331.957 96.9526 331.957 96.9526 330.582 100.015C321.721 108.206 309.375 111.322 297.582 111.015C292.62 110.489 289.009 109.631 285.633 105.808C284.138 103.595 282.806 101.387 281.582 99.0151C285.156 95.4413 290.73 96.3249 295.582 96.0151C290.632 95.6851 285.682 95.3551 280.582 95.0151C290.83 84.7671 314.129 82.1726 326.582 89.0151Z" fill="#33BB88"/>
<path d="M308.269 118.265C309.644 119.64 309.644 119.64 311.582 122.015C311.252 123.005 310.922 123.995 310.582 125.015C303.153 126.301 303.153 126.301 299.582 125.015C299.623 125.799 299.664 126.583 299.707 127.39C299.582 130.015 299.582 130.015 297.582 132.015C294.914 131.843 293.793 131.211 291.832 129.39C290.144 126.184 290.376 123.582 290.582 120.015C293.057 120.51 293.057 120.51 295.582 121.015C294.592 120.335 294.592 120.335 293.582 119.64C292.922 119.104 292.262 118.568 291.582 118.015C291.582 117.355 291.582 116.695 291.582 116.015C297.196 114.576 303.453 114.697 308.269 118.265Z" fill="#33BB88"/>
<path d="M200.582 310.015C201.572 310.51 201.572 310.51 202.582 311.015C202.175 311.442 201.768 311.869 201.348 312.309C194.152 319.872 187.055 327.417 180.547 335.585C178.669 337.907 176.717 340.12 174.707 342.328C165.517 352.576 157.468 363.752 149.582 375.015C148.503 376.55 148.503 376.55 147.402 378.117C145.791 380.413 144.184 382.712 142.582 385.015C141.164 384.079 139.748 383.141 138.332 382.203C137.543 381.681 136.754 381.158 135.941 380.621C133.771 379.144 131.668 377.608 129.582 376.015C130.909 367.894 140.591 362.315 146.594 357.5C149.867 354.778 152.978 351.926 156.082 349.015C160.843 344.556 165.747 340.377 170.836 336.292C174.372 333.36 177.724 330.245 181.084 327.116C185.304 323.21 189.708 319.57 194.207 315.988C196.472 314.107 198.537 312.131 200.582 310.015Z" fill="#3355BB"/>
<path d="M351.328 333.25C365.046 342.488 375.574 355.634 379.895 371.754C382.632 386.494 380.079 401.068 371.582 413.441C354.972 434.291 330.782 445.392 304.582 448.441C257.316 453.454 210.067 440.452 172.77 411.004C168.572 407.437 164.582 403.667 160.645 399.816C159.828 399.027 159.828 399.027 158.995 398.221C155.382 394.6 152.952 390.977 150.582 386.441C151.282 386.25 151.981 386.059 152.702 385.862C155.934 384.977 159.164 384.084 162.395 383.191C164.045 382.741 164.045 382.741 165.729 382.281C172.035 380.533 178.159 378.586 184.249 376.185C186.582 375.441 186.582 375.441 190.582 375.441C192.516 377.672 192.516 377.672 194.582 380.441C198.104 383.621 201.843 386.521 205.582 389.441C206.452 390.127 207.322 390.813 208.219 391.52C235.539 412.265 271.463 420.072 305.262 415.98C318.353 413.628 330.807 408.786 339.582 398.441C342.891 392.697 344.522 386.837 343.109 380.23C342.399 378.205 341.563 376.35 340.582 374.441C340.087 373.431 339.592 372.42 339.082 371.379C328.894 359.408 311.57 355.097 296.582 353.441C274.593 352.01 252.913 354.153 231.517 359.259C227.809 360.121 225.221 360.558 221.582 359.441C222.103 359.121 222.624 358.8 223.161 358.47C225.677 356.921 228.192 355.369 230.707 353.816C231.65 353.235 232.594 352.653 233.566 352.053C238.475 349.017 243.363 345.953 248.207 342.813C283.209 320.13 313.513 309.945 351.328 333.25Z" fill="#33BB88"/>
<path d="M280.582 359.441C296.278 358.197 314.545 362.593 326.734 372.719C330.074 375.833 331.301 378.376 332.457 382.754C332.65 388.44 331.487 392.145 327.832 396.551C316.927 407.216 301.898 409.383 287.207 409.691C279.598 409.579 272.103 408.523 264.582 407.441C264.582 407.111 264.582 406.781 264.582 406.441C265.175 406.427 265.768 406.412 266.379 406.397C293.651 405.968 293.651 405.968 317.008 393.363C319.54 390.272 320.614 387.443 320.582 383.441C318.756 377.103 315.719 373.323 310.082 369.941C300.786 364.997 290.976 362.027 280.582 360.441C280.582 360.111 280.582 359.781 280.582 359.441Z" fill="#33BB88"/>
<path d="M122.582 377.015C129.514 380.682 137.555 385.887 142.582 392.015C143.352 394.609 143.352 394.609 143.582 397.015C142.582 398.828 142.582 398.828 140.582 400.015C134.783 400.621 131.531 399.262 127.02 395.828C126.481 395.44 125.943 395.053 125.389 394.654C113.754 386.184 113.754 386.184 112.582 382.015C112.832 379.328 112.832 379.328 113.582 377.015C116.758 375.427 119.172 376.297 122.582 377.015Z" fill="#3355BB"/>
<path d="M114.582 392.015C116.289 393.107 116.289 393.107 117.965 394.449C118.574 394.933 119.184 395.417 119.812 395.916C120.438 396.423 121.063 396.93 121.707 397.453C122.34 397.956 122.973 398.459 123.625 398.978C130.474 404.453 131.675 408.517 133.707 417.078C133.984 418.186 134.261 419.294 134.547 420.435C137.776 433.885 137.776 433.885 136.582 439.015C134.371 441.589 134.371 441.589 131.207 443.703C130.004 444.542 128.802 445.383 127.601 446.226C126.626 446.893 126.626 446.893 125.631 447.573C121.936 450.173 118.435 453.023 114.894 455.828C108.666 460.696 102.36 465.442 95.9569 470.078C95.2354 470.601 94.514 471.125 93.7706 471.665C89.1561 474.98 84.4365 478.064 79.5819 481.015C84.167 469.081 91.1979 458.713 100.582 450.015C101.215 449.4 101.848 448.785 102.5 448.152C108.022 442.962 113.798 439.363 120.582 436.015C120.166 429.82 118.979 424.748 116.582 419.015C114.479 420.171 114.479 420.171 112.582 422.015C112.286 424.433 112.286 424.433 112.644 427.015C112.742 429.714 112.742 429.714 112.582 432.015C110.582 433.828 110.582 433.828 107.582 435.015C94.514 440.662 86.9929 457.281 79.9972 468.869C77.4114 473.144 74.8535 477.215 71.5819 481.015C69.8345 475.608 69.1149 470.548 68.7303 464.89C68.6666 464.026 68.6028 463.161 68.5371 462.27C68.4043 460.445 68.2751 458.62 68.1493 456.794C67.9594 454.051 67.756 451.308 67.5507 448.566C67.2306 444.192 66.9548 439.817 66.7162 435.438C66.6292 433.869 66.5344 432.301 66.4303 430.733C65.7285 419.706 65.7285 419.706 67.6288 415.941C69.1099 414.312 70.5452 413.204 72.3944 412.015C72.9912 411.578 73.5879 411.14 74.2028 410.69C75.9671 409.416 77.7669 408.215 79.5819 407.015C80.443 406.384 81.3041 405.752 82.1913 405.101C88.0754 400.997 94.5266 398.017 101.019 395.015C101.897 394.604 102.774 394.194 103.678 393.771C104.511 393.398 105.344 393.025 106.203 392.64C106.95 392.302 107.697 391.965 108.466 391.617C110.988 390.9 112.154 391.071 114.582 392.015ZM91.7264 413.851C91.022 414.256 90.3175 414.661 89.5917 415.078C88.504 415.727 88.504 415.727 87.3944 416.39C86.6577 416.816 85.921 417.241 85.162 417.679C81.6703 419.574 81.6703 419.574 78.5819 422.015C78.7172 430.176 79.5027 438.114 81.5819 446.015C85.856 442.045 85.856 442.045 88.5819 437.015C88.6086 433.957 88.6086 433.957 88.2069 430.765C88.096 429.688 87.9852 428.61 87.871 427.5C87.7756 426.68 87.6802 425.86 87.5819 425.015C88.3399 424.756 89.0978 424.497 89.8788 424.23C92.6766 422.973 93.916 421.922 95.8319 419.578C96.3321 418.981 96.8322 418.384 97.3475 417.769C98.7722 415.923 98.7722 415.923 99.5819 413.015C96.2247 411.842 94.7748 412.069 91.7264 413.851Z" fill="#3355BB"/>
</svg>
